# xmcd
#
# Track frame offsets:
#	187
#	12882
#	24717
#	45360
#	59887
#	80335
#	93015
#	112387
#	138000
#	157435
#	169102
#
# Disc length: 2464 seconds
#
# Revision: 2
# Processed by: cddbd v1.4PL0 Copyright (c) Steve Scherf et al.
# Submitted via: EasyCDDAExtractor 4.6.0.1
#
DISCID=8f099e0b
DTITLE=Various Artist - The Song Retains The Name
DYEAR=1988
DGENRE=Rock
TTITLE0=Black Dog - The Royal Mixxers with KGIG and Konan Kelley
TTITLE1=Living Loving Maid (She's Just A Woman) - Rich Hardesty and The Del Reys
TTITLE2=Down By The Seaside - Robert Kuhlmann and Flying Boats
TTITLE3=Good Times, Bad Times - Dalai Lamas
TTITLE4=Four Sticks - Earwigs
TTITLE5=Immigrant Song - Headface
TTITLE6=In The Evening - Twice Shy
TTITLE7=No Quarter - I Love Ethyl
TTITLE8=What Is And What Should Never Be - Helen Keller Plaid
TTITLE9=Houses Of The Holy - Fool Killers
TTITLE10=Rock And Roll - Tent Poles
EXTD=Mad Rover Records\nMR 8801-2
EXTT0=The Royal Mixxers with KGIG and Konan \nKelley\n
EXTT1=Rich Hardesty and The Del Reys\n
EXTT2=Robert Kuhlmann and Flying Boats\n
EXTT3=Dalai Lamas\n
EXTT4=Earwigs\n
EXTT5=Headface\n
EXTT6=Twice Shy\n
EXTT7=I Love Ethyl\n
EXTT8=Helen Keller Plaid\n
EXTT9=Fool Killers\n
EXTT10=Tent Poles\n
PLAYORDER=
